<?xml version="1.0" encoding="iso-8859-1"?>

<svg version="1.1" id="Layer_1" xmlns="http://www.w3.org/2000/svg" xmlns:xlink="http://www.w3.org/1999/xlink" x="0px" y="0px"
       viewBox="0 0 172 172" width="38pt" height="38pt" style="enable-background:new 0 0 496.158 496.158;" xml:space="preserve"
     preserveAspectRatio="xMidYMid meet">
    <g transform="scale(0.348,0.348)">
        <path style="fill:#334D5C;" d="M248.082,0.003C111.07,0.003,0,111.063,0,248.085c0,137.001,111.07,248.07,248.082,248.07
        c137.006,0,248.076-111.069,248.076-248.07C496.158,111.062,385.088,0.003,248.082,0.003z" />
        <path style="fill:#E0AF4C;" d="M226.675,163.461v331.764c7.058,0.604,14.194,0.93,21.407,0.93c7.201,0,14.324-0.325,21.369-0.926
            V163.461H226.675z"/>
        <path style="fill:#EDC988;" d="M226.675,163.461v331.764c6.612,0.565,13.296,0.876,20.046,0.913V163.461H226.675z" />
        <path style="fill:#E17A2D;" d="M300.853,124.592c-0.535,18.984-6.395,34.796-22.202,50.61c0,0,20.271-53.276-1.187-89.037
            c-22.826-38.048-55.895-51.903-55.895-51.903s2.396,48.871-10.039,81.206c-14.664,38.133-44.505,63.243-44.505,102.835
            c0,40.674,37.004,73.609,82.655,73.633c45.67-0.024,82.654-32.959,82.654-73.633C332.336,185.429,318.614,152.94,300.853,124.592z" />
        <path style="fill:#F4E028;" d="M233.271,135.487c0,0,1.313,29.641-5.512,49.251c-8.053,23.126-24.443,38.357-24.443,62.366
            c0,24.669,20.321,44.645,45.389,44.657c25.088-0.013,43.531-20.059,45.394-44.657C298.762,185.329,233.271,135.487,233.271,135.487z" />
        <path style="fill:#FFFFFF;" d="M238.97,191.904c0,0,0.833,18.78-3.492,31.206c-5.097,14.654-15.488,24.301-15.488,39.521
            c0,15.625,12.878,28.281,28.76,28.292c15.892-0.011,27.579-12.708,28.76-28.292C280.466,223.488,238.97,191.904,238.97,191.904z" />
    </g>
</svg>
